<?xml version="1.0" standalone="no"?>
<!DOCTYPE svg PUBLIC "-//W3C//DTD SVG 20010904//EN"
 "http://www.w3.org/TR/2001/REC-SVG-20010904/DTD/svg10.dtd">
<svg version="1.0" xmlns="http://www.w3.org/2000/svg"
 width="500.000000pt" height="500.000000pt" viewBox="0 0 500.000000 500.000000"
 preserveAspectRatio="xMidYMid meet">

<g transform="translate(0.000000,500.000000) scale(0.100000,-0.100000)"
fill="#000000" stroke="none">
<path d="M2270 4989 c-609 -67 -1116 -306 -1536 -724 -370 -367 -611 -835
-698 -1350 -117 -694 62 -1395 502 -1965 78 -100 276 -301 382 -386 357 -287
761 -466 1213 -536 203 -31 531 -31 734 0 319 50 599 147 871 303 214 123 359
235 542 418 692 693 907 1751 544 2671 -144 364 -390 711 -680 961 -375 323
-796 517 -1277 590 -153 23 -466 33 -597 18z m619 -1123 c39 -21 181 -173 230
-248 23 -35 62 -117 88 -183 25 -66 61 -150 79 -187 19 -37 34 -71 34 -75 0
-4 -29 22 -65 57 -36 35 -65 70 -65 77 0 7 -4 12 -9 11 -5 -2 -39 21 -75 51
l-66 55 31 54 c17 30 28 56 25 59 -2 3 -21 -18 -41 -46 l-36 -50 -70 46 -70
46 25 26 c22 25 56 82 56 97 0 4 -10 -6 -22 -22 -12 -16 -35 -43 -51 -61 l-29
-31 -77 36 c-42 19 -78 37 -80 39 -3 2 23 29 56 61 96 92 96 116 -1 28 l-87
-79 -68 16 c-38 10 -78 17 -89 17 -34 0 -33 15 3 61 49 62 32 63 -25 2 l-49
-53 -91 0 c-89 0 -91 0 -79 21 12 23 1 20 -33 -9 -10 -8 -57 -23 -105 -33
-116 -24 -116 -24 -102 4 9 18 5 16 -22 -9 -23 -21 -69 -43 -139 -67 -58 -19
-114 -39 -125 -43 -20 -7 -20 -7 -1 14 30 34 3 26 -30 -9 -24 -26 -189 -119
-210 -119 -4 0 -1 7 6 15 7 9 11 18 8 20 -3 3 -28 -17 -56 -44 -42 -40 -135
-108 -241 -175 -51 -32 108 152 202 234 59 52 113 86 220 139 231 115 357 148
827 216 135 20 261 40 280 44 55 14 108 12 139 -3z m-284 -271 c250 -72 462
-220 709 -495 242 -269 336 -351 443 -392 16 -6 45 -8 64 -4 48 9 190 91 329
191 270 193 306 186 396 -83 41 -120 57 -260 43 -367 -19 -152 -83 -341 -131
-392 -16 -17 -33 -23 -63 -23 -47 0 -95 26 -268 148 -127 89 -157 108 -242
151 l-60 30 71 1 c113 0 231 -46 362 -143 65 -47 80 -43 20 6 -117 96 -254
157 -350 157 -100 0 -170 -21 -258 -77 -108 -70 -107 -69 -265 -248 -345 -391
-578 -553 -878 -610 -339 -64 -847 92 -1338 413 l-116 75 54 71 c65 87 134
218 162 310 17 56 21 94 21 221 0 178 -5 196 -86 328 -63 102 -96 142 -137
163 -15 8 -27 18 -27 23 0 11 194 157 295 222 252 165 532 284 780 332 124 25
133 26 260 22 91 -3 142 -10 210 -30z m-1613 -694 c89 -99 149 -255 170 -441
10 -91 9 -116 -6 -190 -20 -95 -57 -172 -115 -240 l-38 -45 -66 50 c-101 78
-281 238 -399 356 -126 124 -130 137 -67 198 22 22 108 87 192 145 84 57 179
129 212 160 33 30 63 55 67 56 3 0 26 -22 50 -49z m2211 -1158 c-188 -326
-278 -436 -413 -507 -90 -48 -143 -63 -264 -77 -171 -20 -366 5 -536 68 -204
76 -489 247 -566 339 -50 60 -107 144 -102 149 2 2 50 -21 106 -51 94 -51 104
-59 128 -106 27 -53 45 -60 24 -8 -7 17 -11 32 -9 34 2 2 32 -8 67 -22 57 -24
66 -31 93 -81 16 -31 41 -69 54 -86 23 -26 21 -21 -10 43 -19 39 -32 72 -29
72 3 0 43 -12 88 -26 l83 -25 22 -54 c12 -29 38 -70 57 -91 l34 -39 -40 75
c-44 83 -50 106 -22 95 9 -4 68 -18 131 -31 62 -12 115 -24 116 -26 2 -2 17
-33 35 -70 18 -37 43 -77 56 -89 19 -18 16 -8 -16 57 -22 44 -40 84 -40 89 0
6 52 10 134 11 l134 1 23 -49 c12 -26 31 -56 42 -65 20 -18 20 -18 3 16 -10
18 -24 50 -31 71 l-13 37 71 20 c40 11 95 29 123 41 l51 21 32 -50 c40 -60 61
-65 26 -6 -14 24 -25 50 -25 58 1 8 42 38 91 67 87 52 91 53 110 36 21 -19 27
-6 7 15 -11 10 -4 20 32 49 25 21 70 61 100 89 30 29 59 53 63 53 4 0 -5 -21
-20 -47z"/>
<path d="M2016 3424 c-33 -33 21 -74 79 -60 13 3 29 15 35 25 15 28 -12 51
-60 51 -22 0 -45 -7 -54 -16z"/>
<path d="M2432 3364 c-27 -19 -28 -40 -3 -54 27 -14 84 -13 99 2 45 45 -39 92
-96 52z"/>
<path d="M2687 3182 c-21 -23 -21 -27 -1 -46 18 -19 85 -21 102 -4 7 7 12 20
12 30 0 37 -84 52 -113 20z"/>
<path d="M3064 3136 c-41 -31 26 -73 76 -46 25 14 26 36 1 50 -27 14 -54 13
-77 -4z"/>
<path d="M1866 3114 c-33 -33 16 -72 74 -59 69 15 53 75 -20 75 -22 0 -45 -7
-54 -16z"/>
<path d="M1407 3113 c-13 -12 -7 -41 9 -47 48 -18 99 9 74 39 -12 15 -71 21
-83 8z"/>
<path d="M2268 3079 c-22 -12 -23 -42 -3 -59 19 -16 81 -16 100 0 48 40 -40
93 -97 59z"/>
<path d="M2553 2900 c-34 -14 -31 -57 4 -71 55 -21 126 23 91 57 -18 18 -68
26 -95 14z"/>
<path d="M4230 2840 c-110 -65 -289 -153 -365 -179 -59 -21 -59 -21 -15 -15
89 12 227 74 356 161 141 93 152 109 24 33z"/>
<path d="M1432 2847 c-16 -19 1 -39 33 -39 32 0 50 15 42 36 -8 19 -60 21 -75
3z"/>
<path d="M3049 2841 c-20 -16 -21 -21 -10 -35 7 -9 28 -16 46 -16 18 0 39 7
46 16 11 14 10 19 -10 35 -13 11 -29 19 -36 19 -7 0 -23 -8 -36 -19z"/>
<path d="M1812 2738 c-31 -31 -1 -68 56 -68 29 0 62 26 62 48 0 29 -94 44
-118 20z"/>
<path d="M4285 2709 c-44 -17 -136 -57 -205 -89 -91 -44 -148 -64 -210 -75
l-85 -15 83 5 c57 3 100 12 140 29 82 34 376 168 381 172 12 11 -33 -1 -104
-27z"/>
<path d="M3455 2697 c-24 -18 -11 -37 26 -37 33 0 51 26 28 41 -19 12 -32 11
-54 -4z"/>
<path d="M2410 2653 c-90 -10 -213 -38 -343 -78 -199 -61 -260 -76 -357 -85
-76 -8 -71 -8 50 -5 109 3 153 8 225 29 277 80 442 102 705 93 214 -8 269 -16
502 -73 143 -35 207 -46 293 -49 l110 -5 -90 15 c-49 8 -157 33 -240 56 -283
79 -324 88 -426 99 -95 9 -351 11 -429 3z"/>
<path d="M2380 2487 c-37 -19 -37 -43 0 -62 35 -18 69 -14 94 10 19 20 12 39
-20 54 -31 14 -43 14 -74 -2z"/>
<path d="M3856 2469 c-22 -5 -41 -10 -42 -12 -1 -1 126 -1 282 -1 157 1 287 4
290 6 17 17 -461 23 -530 7z"/>
<path d="M3102 2404 c-45 -31 13 -71 72 -48 22 8 20 41 -3 54 -27 14 -43 13
-69 -6z"/>
<path d="M3410 2341 c0 -23 33 -33 56 -16 23 16 9 35 -27 35 -22 0 -29 -5 -29
-19z"/>
<path d="M2679 2312 c-27 -23 -21 -47 16 -64 31 -14 72 -2 89 25 9 15 7 22
-13 38 -29 24 -62 24 -92 1z"/>
<path d="M2002 2198 c-18 -18 -14 -46 7 -58 43 -22 111 -5 111 28 0 29 -21 42
-65 42 -23 0 -46 -5 -53 -12z"/>
<path d="M1545 2144 c-30 -30 20 -57 69 -38 22 8 20 31 -3 44 -28 14 -47 13
-66 -6z"/>
<path d="M2958 2088 l-21 -21 23 -19 c25 -20 52 -23 81 -8 25 14 24 35 -3 54
-31 22 -54 20 -80 -6z"/>
<path d="M2338 1969 c-21 -12 -23 -40 -6 -57 27 -27 118 -6 118 27 0 32 -75
52 -112 30z"/>
<path d="M2686 1864 c-20 -20 -20 -27 2 -47 49 -45 146 5 100 51 -17 17 -84
15 -102 -4z"/>
<path d="M1936 1854 c-9 -8 -16 -19 -16 -24 0 -19 33 -40 61 -40 41 0 69 17
69 40 0 38 -83 55 -114 24z"/>
<path d="M2338 1609 c-10 -5 -18 -19 -18 -29 0 -41 83 -55 115 -20 17 19 17
21 0 40 -20 22 -68 26 -97 9z"/>
<path d="M816 2724 c-18 -18 -21 -56 -6 -85 13 -23 53 -25 74 -3 34 33 10 104
-34 104 -10 0 -26 -7 -34 -16z"/>
<path d="M790 2450 c-42 -42 -37 -107 12 -143 26 -19 28 -19 53 -3 50 33 56
106 12 146 -27 25 -52 25 -77 0z"/>
</g>
</svg>
